<?xml version="1.0" encoding="UTF-8"?>
<svg role="img" xmlns="http://www.w3.org/2000/svg" viewBox="0 0 83.95 83.95"><title>smolvm</title>
  <defs>
    <style>
      .cls-1 {
        fill: #fff;
      }
    </style>
  </defs>
  <g id="Layer_1-2" data-name="Layer 1">
    <g>
      <rect class="cls-1" width="83.95" height="83.95" rx="18" ry="18"/>
      <g>
        <path d="M53.75,38.93c-1.6-.12-2.02-1.22-2.67-2.28-1.14,.89-2.36,1.69-3.38,2.68-1.12,1.09-.99,2.31,.09,3.95,.45,.67,.81,1.4,1.04,2.21-1.5-1.44-3.39-2.57-3.71-5.12-.33,.54-.52,.98-.82,1.33-.64,.77-1.32,1.53-2.01,2.25-.43,.44-1.04,.74-1.37,1.23-1.01,1.51-2.38,2.4-4.18,2.72,1.21,2.92,2.9,5.69,1.8,9.06-1.18-2.85-2.31-5.6-3.42-8.28-3.03,.4-3.06,.39-4.43-2.67q-3.36,.42-4.21-.06c1.62-.28,3.04-.78,4.22-2-1.61-.33-2.88-1.04-3.53-2.63,.21,.07,.42,.15,.63,.22,.64,.23,1.27,.52,1.93,.66,1.2,.27,2.21-.06,2.89-1.16,.35-.56,.75-1.09,1.24-1.6,.03,1.55-.53,3.27,1.91,3.94-.79,.28-1.27,.43-1.73,.62-.79,.33-1.25,1.22-.93,1.98,.14,.33,.63,.78,.89,.74,1.69-.25,3.36-.64,4.64-1.91,.61-.6,.88-1.25,.62-2.17-.55-1.9-.91-3.85-1.48-5.75-.45-1.51-1.33-2.03-2.84-1.68-3.5,.81-6.99,1.64-10.44,2.62-2.51,.71-3.52,2.44-3.03,4.99,.66,3.44,1.55,6.83,2.14,10.28,.66,3.84,.73,7.68-1.35,11.22-.3,.51-.61,1.12-1.33,.94-.45-.11-.84-.45-1.26-.69,1.02-2.02,1.88-3.94,2.04-6.13,.2-2.68-.35-5.24-.88-7.83-.53-2.61-1.03-5.23-1.53-7.84-.02-.12-.03-.25-.03-.37,.03-1.76,.04-3.52,.11-5.27,.06-1.6,.84-2.84,2.14-3.73,.47-.32,.74-.64,.77-1.25,.11-1.96,1.12-3.42,2.96-4.01,3.27-1.05,5.89-3.14,8.65-5.04,1.77-1.21,3.53-2.43,5.27-3.69,1.73-1.25,3.63-1.85,5.76-1.74,1.95,.1,3.92,.12,5.86,.35,1.77,.21,3.51,.69,5.27,1.01,1.37,.25,2.74,.52,4.12,.65,1.88,.18,3.03,.87,3.42,2.23,.48,1.67-.13,3.45-1.54,4.47-1.98,1.43-4.26,1.61-6.58,1.45-1.05-.07-2.08-.36-3.13-.43-.56-.03-1.14,.21-1.71,.31-1.24,.22-2.48,.43-3.76,.65,.5,2.82,2.14,5.36,1.19,8.34,1.43-1.17,2.86-2.34,4.28-3.51,1.77-1.46,3.65-2.72,5.95-3.12,1.51-.26,3.04-.26,4.44,.54,2.12,1.21,2.56,3.45,.89,5.21-1.64,1.73-3.44,3.33-5.13,5.01-3.1,3.09-5.43,6.7-7.06,10.75-1.33,3.32-3.42,5.93-6.52,7.77-1.58,.94-3.08,2.03-3.77,3.86-.26,.69-.46,1.41-.7,2.11-.17,.51-.18,1.17-1.04,.99-.9-.2-1.28-.65-1.09-1.51,.54-2.44,1.65-4.54,3.73-6.03,.53-.38,1.05-.77,1.61-1.11,2.65-1.6,4.52-3.91,5.72-6.7,2.56-5.99,6.51-10.9,11.35-15.16,.44-.39,.86-.81,1.25-1.25,.99-1.11,.66-2.15-.8-2.56-1.76-.49-3.4-.07-4.91,.83-1.11,.67-2.16,1.46-3.19,2.26-1.04,.79-1.11,1.73-.28,2.8,.24,.31,.51,.61,.92,1.08Zm-19.31-14.07c.03,.06,.06,.12,.09,.18,.09-.01,.18-.01,.26-.04,2.07-.62,4.12-1.32,6.22-1.84,2.22-.55,3.52,.08,4.69,2.04,.16,.27,.31,.54,.5,.78,.13,.16,.33,.4,.47,.38,1.51-.16,3.02-.37,4.69-.58-.59-.74-1.39-1.1-1.02-2.17,1.25,1.45,2.78,2.12,4.51,2.32,1.84,.22,3.66,.18,5.36-.7,.85-.44,1.46-1.09,1.43-2.14-.13-.04-.19-.07-.25-.07-.25,.02-.49,.06-.74,.07-1.81,.04-3.58-.21-4.84-1.64-.62-.7-1.27-1.17-2.18-1.25-2.84-.26-5.68-.5-8.52-.74-1.31-.11-2.55,.18-3.66,.87-2.36,1.47-4.69,3.01-7.03,4.51Zm6.63,17.34c.34-.3,.75-.54,.97-.89,.47-.77,1.29-1.69,1.17-2.41-.4-2.4-1.08-4.77-1.8-7.1-.54-1.74-1.55-2.27-3.32-1.81-4.25,1.11-8.49,2.26-12.7,3.52-1.12,.34-2.18,1.05-3.1,1.8-.58,.47-.85,1.31-1.34,2.1,1.34-.59,2.39-1.2,3.53-1.53,3.06-.86,6.15-1.62,9.25-2.38,.81-.2,1.67-.39,2.48-.32,1.94,.17,2.9,1.52,3.39,3.25,.53,1.89,.99,3.81,1.48,5.76Zm-16.9-10.25c2.71-.81,5.32-1.65,7.96-2.35,2.3-.61,4.63-1.11,6.98-1.55,1.38-.26,2.59,.31,3.21,1.56,.66,1.31,1.14,2.73,1.56,4.14,.43,1.44,.7,2.92,1.08,4.54,1.02-1.37,1.85-2.67,1.51-4.18-.55-2.47-1.24-4.92-2.05-7.31-.6-1.78-1.39-2.17-3.24-1.74-2.19,.52-4.36,1.19-6.51,1.87-2.8,.88-5.59,1.82-8.37,2.77-1.06,.36-1.83,1.07-2.13,2.25Zm37.27-9.89c.02-.1,.05-.21,.07-.31-1.36-.23-2.71-.45-4.28-.71,.77,1.09,2.8,1.48,4.21,1.02Z"/>
        <path d="M29.37,63.44c1.53-.28,2.89-.38,4.15-.8,1.22-.41,2.34-1.15,3.73-1.87-1.04,2.11-2.61,2.99-4.58,3.27-1.11,.15-2.22,.13-3.3-.6Z"/>
        <path class="cls-1" d="M34.44,24.86c2.34-1.51,4.66-3.04,7.03-4.51,1.1-.69,2.34-.98,3.66-.87,2.84,.24,5.68,.48,8.52,.74,.91,.08,1.55,.55,2.18,1.25,1.27,1.43,3.03,1.68,4.84,1.64,.25,0,.49-.05,.74-.07,.06,0,.12,.03,.25,.07,.04,1.05-.57,1.7-1.43,2.14-1.69,.88-3.52,.91-5.36,.7-1.74-.2-3.27-.88-4.51-2.32-.37,1.07,.43,1.43,1.02,2.17-1.67,.21-3.18,.42-4.69,.58-.14,.02-.35-.22-.47-.38-.19-.24-.34-.52-.5-.78-1.17-1.96-2.47-2.6-4.69-2.04-2.1,.52-4.15,1.22-6.22,1.84-.08,.03-.17,.03-.26,.04-.03-.06-.06-.12-.09-.18Z"/>
        <path class="cls-1" d="M61.44,22.06c-1.41,.46-3.44,.07-4.21-1.02,1.56,.26,2.92,.49,4.28,.71-.02,.1-.05,.21-.07,.31Z"/>
      </g>
    </g>
  </g>
</svg>
